<?xml version="1.0" standalone="no"?>
<!DOCTYPE svg PUBLIC "-//W3C//DTD SVG 20010904//EN"
 "http://www.w3.org/TR/2001/REC-SVG-20010904/DTD/svg10.dtd">
<svg version="1.0" xmlns="http://www.w3.org/2000/svg"
 width="16.000000pt" height="16.000000pt" viewBox="0 0 16.000000 16.000000"
 preserveAspectRatio="xMidYMid meet">
<metadata>
Created by potrace 1.11, written by Peter Selinger 2001-2013
</metadata>
<g transform="translate(0.000000,16.000000) scale(0.001522,-0.001522)"
fill="#000000" stroke="none">
<path d="M2745 8254 c-22 -2 -110 -11 -195 -20 -332 -33 -673 -119 -960 -242
-862 -369 -1445 -1186 -1535 -2152 -53 -558 43 -1155 257 -1600 67 -140 176
-315 256 -410 89 -106 438 -453 559 -556 298 -255 652 -418 1060 -491 130 -23
181 -26 413 -29 261 -3 268 -3 495 32 302 46 460 77 575 114 52 16 101 30 108
30 14 0 178 60 417 152 140 53 450 193 475 213 8 6 67 39 131 73 64 33 155 86
204 117 l88 57 -6 597 c-4 328 -10 881 -14 1229 -4 437 -10 635 -17 640 -6 5
-115 54 -243 110 -148 65 -243 102 -265 101 -18 0 -528 -55 -1133 -123 l-1100
-122 -3 -27 c-2 -15 6 -276 18 -580 18 -490 23 -554 38 -568 9 -9 100 -74 202
-145 136 -94 193 -127 215 -127 17 0 119 12 228 28 108 16 199 26 201 24 2 -2
6 -46 7 -98 3 -87 2 -95 -18 -102 -48 -18 -290 -41 -433 -41 -161 -1 -234 8
-357 44 -68 20 -75 24 -107 72 -134 203 -202 467 -213 826 -12 398 62 687 246
965 99 150 295 317 476 408 245 122 590 175 865 132 161 -24 184 -34 385 -161
163 -103 223 -134 417 -217 124 -53 239 -97 255 -97 31 1 301 55 308 62 4 3 7
797 5 1314 l0 51 -137 71 c-209 106 -324 146 -835 292 -443 126 -592 149
-1013 154 -154 2 -298 2 -320 0z m1240 -294 c195 -25 245 -38 360 -89 l90 -40
7 -158 c3 -87 8 -352 10 -590 4 -343 2 -433 -8 -437 -7 -3 -51 15 -97 40 -247
129 -522 194 -819 194 -88 0 -158 4 -158 9 0 15 277 12 380 -3 52 -8 96 -13
98 -11 9 9 -212 110 -317 145 -209 70 -299 84 -526 84 -167 0 -218 -3 -313
-22 -302 -61 -527 -176 -723 -371 -322 -322 -452 -774 -389 -1353 47 -420 209
-741 467 -921 54 -37 185 -107 202 -107 5 0 -8 35 -30 78 -41 78 -29 74 19 -8
39 -68 143 -199 198 -250 81 -76 262 -189 277 -174 3 4 34 -3 69 -14 109 -36
249 -53 415 -53 166 1 255 9 451 43 l124 22 -7 365 c-4 201 -10 369 -14 373
-3 3 -45 1 -92 -5 l-86 -11 -151 94 -151 93 -7 70 -7 69 -36 -5 c-134 -21
-362 -49 -365 -46 -6 6 -27 671 -22 676 3 3 359 47 793 99 433 51 802 96 819
99 l31 5 7 -287 c3 -159 9 -594 12 -968 l7 -681 -118 -63 c-226 -123 -635
-303 -880 -387 -499 -172 -1027 -254 -1450 -224 -379 27 -746 141 -990 307
-61 42 -80 63 -153 173 -154 231 -271 525 -331 830 -157 795 -45 1555 317
2150 156 257 407 537 642 716 451 344 1066 545 1755 573 209 8 500 -4 690 -29z
m-2497 -4808 c29 -19 50 -37 48 -39 -6 -6 -142 83 -152 99 -8 13 1 7 104 -60z
m328 -170 c10 -6 75 -27 144 -47 69 -20 132 -43 140 -52 13 -14 13 -15 -1 -10
-9 3 -61 19 -117 36 -161 50 -372 142 -372 162 0 7 144 -56 206 -89z"/>
<path d="M6973 7862 l-92 -87 -59 -160 c-33 -88 -300 -790 -592 -1560 -796
-2094 -1126 -2964 -1185 -3120 l-53 -140 26 -7 c23 -6 329 -37 527 -53 33 -3
227 -21 430 -40 204 -19 414 -38 467 -41 l96 -7 85 169 c46 93 135 296 196
452 62 155 118 282 125 282 7 0 167 -11 357 -25 189 -14 508 -36 709 -50 201
-14 376 -29 390 -33 22 -7 38 -50 185 -492 l160 -485 205 -13 c788 -49 1476
-88 1483 -85 4 2 7 101 7 220 l0 215 -101 312 c-55 171 -206 635 -335 1031
-129 396 -393 1204 -586 1795 -590 1812 -636 1951 -641 1956 -4 5 -1524 53
-1662 54 -49 0 -51 -2 -142 -88z m976 -226 l644 -21 169 -505 c94 -278 446
-1331 783 -2340 338 -1009 616 -1842 620 -1851 3 -9 0 -19 -7 -21 -7 -3 -242
12 -523 33 -280 21 -556 41 -612 45 -56 4 -106 10 -113 14 -6 4 -76 211 -156
461 -80 250 -149 457 -152 460 -11 10 -1574 111 -1583 102 -4 -4 -37 -87 -74
-183 -82 -213 -80 -210 -105 -203 -25 7 -40 -24 -139 -285 -38 -101 -71 -185
-73 -186 -1 -2 -82 3 -178 10 -96 8 -381 29 -633 48 -252 19 -460 36 -462 38
-2 2 23 74 56 158 73 185 1382 3549 1479 3800 92 237 148 378 166 420 l15 35
117 -4 c64 -2 407 -13 761 -25z m-1269 -642 c-139 -357 -334 -860 -435 -1119
-177 -455 -435 -1120 -800 -2065 -96 -250 -180 -459 -186 -465 -6 -5 -4 8 5
30 8 22 94 245 191 495 205 527 713 1841 1152 2975 168 435 308 794 310 798 3
5 7 6 10 4 2 -3 -109 -297 -247 -653z"/>
<path d="M7796 6065 c-36 -96 -66 -179 -66 -184 0 -5 77 -249 171 -542 94
-294 174 -544 176 -557 10 -42 20 -31 54 56 l35 87 62 -3 61 -4 -14 44 c-8 23
-57 180 -110 348 -175 552 -294 922 -298 926 -2 3 -34 -74 -71 -171z"/>
<path d="M7676 5903 c-18 -44 -388 -1011 -436 -1136 -29 -76 -51 -139 -49
-141 4 -3 887 -57 927 -56 25 0 29 17 8 34 -15 12 -35 67 -99 271 -134 423
-231 724 -234 721 -2 -2 35 -137 83 -300 48 -163 84 -299 81 -302 -8 -8 -486
17 -492 25 -5 9 257 744 267 752 9 6 -27 128 -41 142 -5 5 -12 0 -15 -10z"/>
</g>
</svg>
